<svg xmlns="http://www.w3.org/2000/svg" viewBox="0 0 1000 420" role="img" aria-labelledby="title">
  <title id="title">Tangle execution model</title>
  <defs><linearGradient id="g" x1="0" x2="1"><stop stop-color="#2DD4BF"/><stop offset=".5" stop-color="#8B5CF6"/><stop offset="1" stop-color="#FB7185"/></linearGradient></defs>
  <rect width="1000" height="420" rx="24" fill="#0B1020"/>
  <g fill="#17172C" stroke="#45405F" stroke-width="2"><rect x="350" y="38" width="300" height="78" rx="16"/><rect x="70" y="202" width="230" height="78" rx="16"/><rect x="385" y="202" width="230" height="78" rx="16"/><rect x="700" y="202" width="230" height="78" rx="16"/><rect x="350" y="330" width="300" height="58" rx="16"/></g>
  <g fill="none" stroke="url(#g)" stroke-width="6" stroke-linecap="round"><path d="M500 116V158H185V202"/><path d="M500 116V202"/><path d="M500 158H815V202"/><path d="M185 280V306H500V330"/><path d="M500 280V330"/><path d="M815 280V306H500"/></g>
  <g fill="#F8F7FF" font-family="Inter, ui-sans-serif, system-ui" text-anchor="middle"><text x="500" y="73" font-size="25" font-weight="700">Claude · engineering lead</text><text x="500" y="99" fill="#AAA6C6" font-size="15">plans · codes · reviews · integrates</text><text x="185" y="238" font-size="20" font-weight="650">Codex worker A</text><text x="185" y="261" fill="#AAA6C6" font-size="14">worktree A</text><text x="500" y="238" font-size="20" font-weight="650">Codex worker B</text><text x="500" y="261" fill="#AAA6C6" font-size="14">worktree B</text><text x="815" y="238" font-size="20" font-weight="650">Codex worker C</text><text x="815" y="261" fill="#AAA6C6" font-size="14">worktree C</text><text x="500" y="366" font-size="19" font-weight="700">Reviewed integration</text></g>
</svg>
